<svg 
xmlns="http://www.w3.org/2000/svg" 
xmlns:xlink="http://www.w3.org/1999/xlink" 
version="1.1" 
x="0px" y="0px" 
width="200px"
height="200px"
viewBox="0 0 100 125" 
enable-background="new 0 0 100 100" 
xml:space="preserve">
<g><path d="M50.7,20.609c-16.129,0-29.251,13.122-29.251,29.251S34.571,79.111,50.7,79.111S79.951,65.989,79.951,49.86   S66.829,20.609,50.7,20.609z M50.7,76.111c-14.475,0-26.251-11.776-26.251-26.251S36.226,23.609,50.7,23.609   S76.951,35.386,76.951,49.86S65.175,76.111,50.7,76.111z"/><path d="M50.7,31.267c-5.126,0-9.774,2.084-13.142,5.451s-5.452,8.016-5.452,13.143c0,10.253,8.341,18.594,18.594,18.594   s18.594-8.341,18.594-18.594S60.953,31.267,50.7,31.267z M50.7,65.454c-8.599,0-15.594-6.995-15.594-15.594   S42.102,34.267,50.7,34.267s15.594,6.995,15.594,15.594S59.299,65.454,50.7,65.454z"/><path d="M91.73,27.612h-0.199c-3.034,0-5.503,2.469-5.503,5.503v18.744c0,1.521,0.974,2.817,2.33,3.301v20.728   c0,1.932,1.571,3.503,3.503,3.503h1.869c1.932,0,3.503-1.571,3.503-3.503V33.115C97.233,30.081,94.765,27.612,91.73,27.612z    M94.233,75.888c0,0.277-0.226,0.503-0.503,0.503h-1.869c-0.277,0-0.503-0.226-0.503-0.503V52.362h-1.827   c-0.272,0-0.503-0.23-0.503-0.503V33.115c0-1.38,1.123-2.503,2.503-2.503h0.199c1.38,0,2.503,1.123,2.503,2.503V75.888z"/><path d="M14.558,43.403c0,1.38-1.123,2.502-2.503,2.502h-0.319V28.21h-3v17.695H8.27c-1.38,0-2.503-1.122-2.503-2.502V27.999h-3   v15.404c0,2.161,1.255,4.029,3.072,4.929v27.54c0,1.931,1.571,3.502,3.503,3.502h1.831c1.931,0,3.502-1.571,3.502-3.502V48.241   c1.716-0.934,2.883-2.752,2.883-4.838V28.069h-3V43.403z M11.675,75.872c0,0.276-0.226,0.502-0.502,0.502H9.342   c-0.272,0-0.503-0.229-0.503-0.502V48.999h2.836V75.872z"/></g>
</svg>