<svg 
xmlns="http://www.w3.org/2000/svg" 
xmlns:xlink="http://www.w3.org/1999/xlink" 
xml:space="preserve" 
width="200px"
height="200px"
style="shape-rendering:geometricPrecision;text-rendering:geometricPrecision;image-rendering:optimizeQuality;" 
viewBox="0 0 6.82666 8.533325000000001" 
x="0px" 
y="0px" 
fill-rule="evenodd" 
clip-rule="evenodd">
  <defs>
    <style type="text/css"> 
      .fil0 {fill:none}
      .fil1 {fill:black;fill-rule:nonzero}
    </style>
  </defs>
  <g><g><rect class="fil0" width="6.82666" height="6.82666"/><rect class="fil0" x="0.853331" y="0.853331" width="5.12" height="5.12"/></g><g><polygon class="fil1" points="5.92259,0.999169 3.41279,2.4482 3.35836,2.47963 3.30487,2.44737 0.901984,0.998339 1.01198,0.815835 3.36139,2.23261 5.81676,0.815004 "/><g><path class="fil1" d="M0.956984 0.800417l4.91269 0 0.106669 0 0 0.106669 0 2.63216 0 0.106669 -0.106669 0 -3.11861 0 0.0487362 -0.0487362c0.0316654,-0.0316693 0.0581535,-0.067815 0.0795079,-0.107783 0.0098189,-0.018378 0.0183622,-0.0373346 0.0256339,-0.0568189l2.85807 0 0 -2.41882 -4.69935 0 0 2.41882 0.100126 0c0.0139803,0.070748 0.0325906,0.141988 0.0552559,0.213339l-0.262051 0 -0.106669 0 0 -0.106669 0 -2.63216 0 -0.106669 0.106669 0z"/><path class="fil1" d="M5.21087 5.22022c0.00614567,0.0472559 0.00181102,0.092063 -0.0129921,0.134346 -0.0148228,0.0423465 -0.0390866,0.0803819 -0.0727638,0.114059l-0.000417323 0 -0.525618 0.521646c-0.0169331,0.0187795 -0.0361732,0.0359606 -0.0577008,0.0515354 -0.0204055,0.0147598 -0.0432402,0.028248 -0.0684921,0.040437 -0.0246535,0.0119055 -0.0484685,0.0214843 -0.0714016,0.0287205 -0.0239685,0.00757087 -0.0484213,0.0131378 -0.073315,0.0166929l-0.0142638 0.00118898 7.87402e-006 0.000110236c0.000129921,7.87402e-006 0.000169291,1.9685e-005 3.93701e-006,3.54331e-005 -0.0140945,0.0011811 -0.00964567,0.000622047 -0.0142441,0.00108268 -0.00833858,0.00084252 -0.018189,0.00148425 -0.0295354,0.00191732 -0.0158189,0.000610236 -0.0266614,0.000917323 -0.0326339,0.000917323 -0.587736,0 -1.25074,-0.38072 -1.80222,-0.896685 -0.608311,-0.569134 -1.0861,-1.30851 -1.1773,-1.88271 -0.00579134,-0.0364685 -0.010189,-0.0701102 -0.013189,-0.100906 -0.00302756,-0.031126 -0.00457874,-0.0597913 -0.00464173,-0.0859764l-0.000417323 0 0 -0.00314961 0.000417323 0c1.5748e-005,-0.00634646 8.26772e-005,-0.0113425 0.000185039,-0.015063 0.000224409,-0.00788583 0.000393701,-0.0128701 0.000480315,-0.0144764 0.00162205,-0.0294803 0.00262992,-0.048 0.00297244,-0.0549094 0.00038189,-0.00770472 0.00057874,-0.0139449 0.00057874,-0.0188898l0.00125197 -0.015c0.00355512,-0.0249134 0.00912598,-0.0493543 0.0166929,-0.073315 0.00724016,-0.0229331 0.0168228,-0.0467402 0.0287283,-0.0714016 0.012185,-0.0252638 0.0256693,-0.0480984 0.0404331,-0.0685 0.0145118,-0.0200551 0.0304173,-0.0381181 0.0477047,-0.0541811l-3.14961e-005 -3.14961e-005 0.529516 -0.52952c0.0276772,-0.0276772 0.0585669,-0.0489843 0.0926378,-0.0638858 0.0352047,-0.0154016 0.0719409,-0.0231063 0.110185,-0.0231063l0 0.000417323c0.0289606,-3.93701e-006 0.0562087,0.00415354 0.0816969,0.0124606 0.0260748,0.00849606 0.050622,0.0213858 0.0736063,0.0386417 0.0190984,0.0143268 0.0362402,0.0297598 0.0514134,0.0462717 0.0149724,0.0162913 0.0290079,0.0347323 0.0421063,0.055311l0.00458268 0.0075 0.424697 0.805724 5.51181e-005 -3.14961e-005c0.018374,0.0326732 0.0301772,0.0672835 0.0353898,0.10378 0.00505906,0.0354173 0.00364961,0.0718701 -0.00422835,0.109323 -0.00751181,0.0357087 -0.0191378,0.0683858 -0.034874,0.0980157 -0.0159724,0.0300551 -0.036563,0.0577047 -0.0617717,0.0829291l0.000208661 0.000208661 -0.180264 0.180264c0.00397244,0.0151339 0.00908268,0.0310157 0.015315,0.0476339 0.0101102,0.0269646 0.0237087,0.0569134 0.0407913,0.0898465l0.000417323 0.00125197c0.0780866,0.156169 0.231472,0.349449 0.407197,0.525531 0.173819,0.174177 0.366736,0.328638 0.52737,0.410709l0.000169291 -0.000330709c0.0297717,0.0151929 0.0543976,0.0267126 0.0738622,0.0345512 0.0170433,0.00685827 0.0310394,0.0113937 0.0419606,0.0135748l0.0205118 0.00410236 0.211268 -0.214972 0.005 -0.005c0.0337008,-0.0299291 0.0705551,-0.0525315 0.110567,-0.0677835 0.0402559,-0.0153425 0.082748,-0.0230236 0.127476,-0.0230236 0.0290866,0 0.0569685,0.0029685 0.083622,0.00888976 0.0274567,0.00609843 0.0520827,0.0153543 0.073874,0.0277441l0.00816535 0.00225984 0.768386 0.453882 0.00166929 0.00124803c0.0395276,0.0244764 0.0714843,0.0528071 0.0958583,0.0849921 0.0264685,0.034937 0.0439528,0.0736102 0.0524488,0.116012l0.000834646 0.00708268zm-0.213827 0.0643465c0.00322047,-0.00920079 0.00442126,-0.0194843 0.00360236,-0.0308268 -0.00222047,-0.0102913 -0.0065748,-0.0197244 -0.0130591,-0.0282835 -0.00847244,-0.011189 -0.0204055,-0.0216535 -0.0357717,-0.0313858l-8.66142e-005 0.000145669 -0.765677 -0.45228 -0.00712992 -0.00201575c-0.00362598,-0.00217717 -0.00866929,-0.00398425 -0.015122,-0.00541732 -0.00915748,-0.0020315 -0.0217598,-0.00305512 -0.0377874,-0.00305512 -0.0189528,0 -0.0361693,0.00295276 -0.0516417,0.00885039 -0.0154646,0.0058937 -0.0301575,0.0149606 -0.044063,0.027189l-0.222594 0.226496 -0.000417323 0.000417323c-0.0102402,0.0102835 -0.0220669,0.0190236 -0.0354567,0.0262323 -0.00884646,0.00476378 -0.0197008,0.00928346 -0.0325157,0.0135472 -0.0105984,0.00351969 -0.0189488,0.00599213 -0.0250157,0.00738976 -0.0127362,0.00293701 -0.0241299,0.00441339 -0.0342126,0.00441339l-0.0208346 -0.00208661 -0.0497402 -0.00994488c-0.0222283,-0.00444094 -0.0487205,-0.0128622 -0.0794567,-0.0252362 -0.0283071,-0.0114016 -0.0587795,-0.0254252 -0.0913661,-0.0420551l0 -0.000417323c-0.181276,-0.0925748 -0.393677,-0.261547 -0.581705,-0.449961 -0.1895,-0.189886 -0.357071,-0.402492 -0.445776,-0.579366l-0.000169291 8.66142e-005c-0.0200866,-0.0387244 -0.0370197,-0.0764567 -0.0507913,-0.113185 -0.0142008,-0.0378661 -0.0244961,-0.073563 -0.030874,-0.107083l-0.00208661 -0.0195827c0,-0.0109055 0.00120079,-0.0223386 0.00358268,-0.034252 0.00140551,-0.00704724 0.00416142,-0.0167165 0.00822835,-0.0289449 0.00425591,-0.012815 0.00877953,-0.0236299 0.0135315,-0.0324606 0.00714567,-0.0132717 0.0157717,-0.0249724 0.0258268,-0.0350866l0 -0.000417323 0.195071 -0.195071 0.000417323 0c0.0092126,-0.00920472 0.0171024,-0.0199803 0.0236496,-0.0323031 0.00681496,-0.0128346 0.0117756,-0.026622 0.014874,-0.0413465 0.00272441,-0.0129528 0.00329921,-0.0249606 0.00172441,-0.0359921 -0.00142126,-0.00994882 -0.00488583,-0.0198307 -0.0103898,-0.0296142l-0.00124803 -0.0025 -0.42452 -0.805382c-0.00479134,-0.00698819 -0.0102992,-0.0138661 -0.0165079,-0.020622 -0.00737795,-0.0080315 -0.0148031,-0.0148504 -0.022248,-0.020437 -0.00351969,-0.00264173 -0.00750787,-0.00469685 -0.011937,-0.0061378 -0.00502756,-0.0016378 -0.0103268,-0.00246063 -0.0158622,-0.00246063l0 0.000417323c-0.00952362,0 -0.0179213,0.00159055 -0.025185,0.00476772 -0.00838976,0.00366929 -0.0173307,0.010248 -0.0268031,0.0197205l-0.529516 0.52952 -0.00416535 0.00374803c-0.00766535,0.0068937 -0.0149488,0.0151063 -0.0218386,0.0246299 -0.00779134,0.0107638 -0.0148858,0.0227677 -0.0212677,0.0360039 -0.0066811,0.0138346 -0.012374,0.0281969 -0.0170669,0.043063 -0.0037874,0.012 -0.00659843,0.0234016 -0.00841732,0.0341969l-0.000933071 0.0188425c-0.000980315,0.0196339 -0.0019685,0.0382913 -0.00297244,0.0565787l-0.000480315 0.00864173c-0.000114173,0.00415354 -0.000181102,0.00727165 -0.000185039,0.00922835l0.000417323 0 0 0.00314961 -0.000417323 0c4.33071e-005,0.0183701 0.0013189,0.0403701 0.00380709,0.0659764 0.00252362,0.0259331 0.00637008,0.0551299 0.0115197,0.0875748 0.0840984,0.529469 0.535626,1.2215 1.1123,1.76104 0.515602,0.482394 1.12704,0.838346 1.65722,0.838346 0.0152835,0 0.0237087,-2.75591e-005 0.0251299,-8.26772e-005 0.0058937,-0.000224409 0.0113071,-0.000590551 0.0162047,-0.00108268 0.0178386,-0.00179134 0.0114528,-0.00140551 0.0175748,-0.00191732 0.0026811,-0.000224409 0.00512992,-0.000405512 0.00734646,-0.000547244 0.0105984,-0.0018189 0.0217913,-0.00459055 0.0335591,-0.00830709 0.014874,-0.00469291 0.0292402,-0.0103858 0.043063,-0.0170591 0.0132126,-0.00637795 0.0252205,-0.0134764 0.0359961,-0.0212717 0.00953543,-0.00689764 0.0177598,-0.014185 0.0246417,-0.0218346l0.00416535 -0.00416535 0.529303 -0.525303 -0.000208661 -0.000208661c0.0114134,-0.0114134 0.0190118,-0.0225 0.0227638,-0.0332244zm-0.683138 0.84428l-0.00073622 6.29921e-005c-0.000854331,0 0.000354331,1.5748e-005 0.000744094,4.72441e-005l-7.87402e-006 -0.000110236z"/></g></g></g>
</svg>