<svg xmlns="http://www.w3.org/2000/svg" xmlns:xlink="http://www.w3.org/1999/xlink" version="1.1" x="0px" y="0px" viewBox="0 0 80.941 80.07625000000002" enable-background="new 0 0 80.941 64.061" xml:space="preserve"><line fill="none" stroke="#000000" stroke-width="3" stroke-linejoin="round" x1="0" y1="62.561" x2="80.941" y2="62.561"/><polygon stroke="#000000" stroke-width="2.1809" stroke-linecap="round" stroke-linejoin="round" points="15.275,53.674   16.559,53.195 18.809,52.891 21.196,53.195 22.455,53.664 23.374,55.503 14.379,55.503 "/><line stroke="#000000" stroke-width="2.1809" stroke-linecap="round" stroke-linejoin="round" x1="23.369" y1="58.119" x2="14.374" y2="58.119"/><line fill="none" stroke="#000000" stroke-width="1.6064" stroke-linecap="round" stroke-linejoin="round" x1="19.02" y1="52.463" x2="19.02" y2="51.109"/><path fill="none" stroke="#000000" stroke-width="1.6064" d="M61.707,12c0,6.183-5.016,11.195-11.202,11.195  c-6.182,0-11.191-5.012-11.191-11.195c0-6.183,5.01-11.197,11.191-11.197C56.691,0.803,61.707,5.818,61.707,12z"/><polyline fill="none" stroke="#000000" stroke-width="1.6064" stroke-linecap="round" stroke-linejoin="round" points="  40.603,58.766 40.603,56.412 35.469,54.904 35.469,30.741 40.003,26.614 60.945,26.614 65.469,30.842 65.469,49.924 55.988,53.338   "/><polyline fill="none" stroke="#000000" stroke-width="1.6064" stroke-linecap="round" stroke-linejoin="round" points="  63.337,55.554 60.436,56.516 60.436,58.766 "/><line fill="none" stroke="#000000" stroke-width="1.6068" stroke-linejoin="round" x1="50.637" y1="47.213" x2="50.637" y2="29.082"/>

</svg>