<svg xmlns="http://www.w3.org/2000/svg" 
xmlns:xlink="http://www.w3.org/1999/xlink" 
version="1.1" 
x="0px" 
y="0px" 
viewBox="0 0 70 87.5" 
width="200px"
height="200px"
style="enable-background:new 0 0 70 70;" 
xml:space="preserve">
<path d="M3.6455078,63.984375h48.921875c0.5522461,0,1-0.4477539,1-1v-3.1722412l5.2387695,6.2869873  c1.0385742,1.2460938,2.5166016,1.8979492,3.9682617,1.8979492c1.0517578,0,2.0898438-0.3422852,2.9365234-1.0478516  c2.0161133-1.6801758,2.199707-4.7958984,0.4086914-6.9448242l-3.3816528-4.0582886  c-0.000061-0.0001221-0.0001221-0.0001831-0.0001831-0.0003052s-0.0001831-0.0001221-0.0002441-0.0002441l-2.4675293-2.9611816  c-0.1694336-0.2036133-0.4135742-0.331543-0.6777344-0.355957c-0.2607422-0.0175781-0.5263672,0.0581055-0.7304688,0.2280273  l-2.0683594,1.7236328l-1.6136475-1.9362183c2.3546143-2.2684937,3.8096313-5.2647095,4.1087646-8.5535278  c0.3295898-3.6230469-0.7714844-7.1582031-3.1010742-9.953125c-0.7802124-0.9363403-1.6682129-1.7269287-2.6201172-2.3980103V3  c0-0.5522461-0.4477539-1-1-1H3.6455078c-0.5522461,0-1,0.4477539-1,1v59.984375  C2.6455078,63.5366211,3.0932617,63.984375,3.6455078,63.984375z M64.4306641,65.4130859  c-1.1689453,0.9741211-3.0024414,0.7080078-4.0883789-0.5942383l-2.7417603-3.2904053l4.2411499-3.5343018l2.7418213,3.2905273  C65.668457,62.5864258,65.5996094,64.4384766,64.4306641,65.4130859z M59.3740234,55.0327148l1.187561,1.4251709  l-4.2411499,3.5343018l-1.1876221-1.425293l2.1725464-1.8103638c0.0001221-0.000061,0.0001831-0.0001221,0.0003052-0.0001831  c0.000061-0.000061,0.0001221-0.0001831,0.0001831-0.0002441L59.3740234,55.0327148z M53.5673828,57.2684937v-3.2791748  c0.0272217-0.0192261,0.0527344-0.0415039,0.079834-0.0609131l1.6100464,1.9318237L53.5673828,57.2684937z M54.6513672,35.4174805  c1.9873047,2.3847656,2.9267578,5.4003906,2.6455078,8.4921875c-0.28125,3.0913086-1.7495117,5.8881836-4.1342773,7.8754883  c-2.3837891,1.9868164-5.3969727,2.9287109-8.4921875,2.6455078c-3.0913086-0.2807617-5.8881836-1.7490234-7.8754883-4.1337891  c-4.1020508-4.9228516-3.434082-12.265625,1.4887695-16.3681641C43.2060547,29.8261719,50.5483398,30.4941406,54.6513672,35.4174805  z M4.6455078,4h46.921875v26.5700073c-4.6504517-2.2026978-10.3583374-1.6818848-14.5639648,1.8225708  c-1.3622437,1.1351318-2.4360962,2.4866943-3.234436,3.9580078H11.4873047c-0.5522461,0-1,0.4477539-1,1s0.4477539,1,1,1h21.4014282  c-0.6550903,1.8760986-0.9064941,3.871582-0.7145996,5.8447266H11.4873047c-0.5522461,0-1,0.4477539-1,1s0.4477539,1,1,1h21.0476074  c0.4821777,1.9185791,1.3751221,3.7632446,2.723877,5.3818359c0.1378784,0.1654053,0.2896729,0.3143311,0.434082,0.472168H11.484375  c-0.5522461,0-1,0.4477539-1,1s0.4477539,1,1,1h26.2431641c0.067627,0,0.12677-0.0256958,0.1906128-0.0385132  c1.923584,1.3505249,4.1678467,2.1932373,6.5715942,2.4115601c0.4204102,0.0385742,0.8398438,0.0576172,1.2568359,0.0576172  c2.0328979,0,4.0109253-0.4550781,5.8208008-1.3187256v6.8231201H4.6455078V4z"/><path d="M13.8022461,31.237793c0.0042725,0,0.0078125-0.0023804,0.012085-0.0024414h9.9152832  c0.0042725,0.000061,0.0078125,0.0024414,0.012085,0.0024414s0.0078125-0.0023804,0.012085-0.0024414h4.1763916  c0.5522461,0,1-0.4477539,1-1v-4.9702148c0-3.6409912-2.5606689-6.6292725-5.9671631-6.987793  c-0.0028687-0.0004883-0.0056152-0.0007935-0.0084839-0.0012207c-0.0223999-0.0023193-0.0438843-0.0074463-0.0663452-0.0095215  c-0.0518188-0.0048828-0.0979614,0.0127563-0.1481934,0.015564c-0.0686035,0.0038452-0.1356201,0.00354-0.2018433,0.0211792  c-0.0684814,0.0181274-0.1273193,0.0510254-0.1893311,0.0826416c-0.052063,0.0263062-0.1043701,0.0474854-0.1515503,0.0829468  c-0.0610962,0.0460205-0.1075439,0.1044312-0.1566772,0.1633301c-0.0284424,0.0338745-0.0661011,0.0559082-0.0903931,0.0942993  c-0.6899414,1.0893555-1.8789062,1.7392578-3.1801758,1.7392578s-2.4902344-0.6499023-3.1801758-1.7392578  c-0.0215454-0.0339355-0.0552368-0.0530396-0.0800171-0.0834351c-0.052063-0.0646362-0.1032104-0.1271362-0.1695557-0.1766968  c-0.0431519-0.0321655-0.0908813-0.0510254-0.1380615-0.0756226c-0.0651855-0.0340576-0.1276855-0.0684814-0.2004395-0.0875244  c-0.0661621-0.0176392-0.1330566-0.0172119-0.2015381-0.0211182c-0.050354-0.0028076-0.0962524-0.0203857-0.1483765-0.015564  c-0.0224609,0.0020752-0.0439453,0.0072021-0.0663452,0.0095215c-0.0028076,0.0004272-0.0054932,0.0007935-0.0083008,0.0012207  c-3.4065552,0.3585205-5.9673462,3.3467407-5.9673462,6.987793v4.9702148c0,0.5522461,0.4477539,1,1,1h4.1802979  C13.7944336,31.2354126,13.7979736,31.237793,13.8022461,31.237793z M10.6098633,25.2651367  c0-2.3889771,1.5913696-4.4266357,3.701355-4.9017944c1.0852661,1.3266602,2.7053223,2.102478,4.4588013,2.102478  s3.3735352-0.7758179,4.4588013-2.102478c2.1099854,0.4751587,3.701355,2.5128174,3.701355,4.9017944v3.9702148h-2.1884766  v-3.8574219c0-0.5522461-0.4477539-1-1-1s-1,0.4477539-1,1v3.8574219h-7.9394531v-3.8574219c0-0.5522461-0.4477539-1-1-1  s-1,0.4477539-1,1v3.8574219h-2.1923828V25.2651367z"/><path d="M18.7700195,17.4829102c3.0625,0,5.5541992-2.4916992,5.5541992-5.5541992S21.8325195,6.375,18.7700195,6.375  s-5.5541992,2.4912109-5.5541992,5.5537109S15.7075195,17.4829102,18.7700195,17.4829102z M18.7700195,8.375  c1.9599609,0,3.5541992,1.5942383,3.5541992,3.5537109c0,1.9599609-1.5942383,3.5541992-3.5541992,3.5541992  s-3.5541992-1.5942383-3.5541992-3.5541992C15.2158203,9.9692383,16.8100586,8.375,18.7700195,8.375z"/><path d="M42.3520508,34.8168945c0.152832,0.5302734,0.7050781,0.8354492,1.2382812,0.6826172  c2.9248047-0.8427734,6.0693359,0.1191406,8.0161133,2.4550781c0.1977539,0.2373047,0.4819336,0.3598633,0.7685547,0.3598633  c0.2255859,0,0.4526367-0.0761719,0.6396484-0.2319336c0.4243164-0.3535156,0.4814453-0.9838867,0.1279297-1.4082031  c-2.4560547-2.9472656-6.4238281-4.1635742-10.1079102-3.0957031  C42.5039062,33.7319336,42.1982422,34.2866211,42.3520508,34.8168945z"/>
</svg>