<svg xmlns="http://www.w3.org/2000/svg"
xmlns:xlink="http://www.w3.org/1999/xlink"
version="1.1" 
x="0px" 
y="0px" 
width="200px"
height="200px"
viewBox="0 0 100 125" 
style="enable-background:new 0 0 100 100;" 
xml:space="preserve">
<style type="text/css">
	.st0{fill:none;stroke:#000000;stroke-width:1;stroke-linecap:round;stroke-linejoin:round;stroke-miterlimit:10;}
</style>
<path d="M37.062,90.043c10.199,0,19.097-5.674,23.708-14.03l23.819-5.967c3.821-0.958,6.151-4.846,5.194-8.667l-11.516-45.96  c-0.463-1.852-1.62-3.411-3.257-4.393c-1.638-0.981-3.559-1.265-5.41-0.802l-35.275,8.838c-0.257,0.064-0.479,0.229-0.614,0.456  c-0.137,0.228-0.177,0.499-0.112,0.757l3.922,15.654c-0.154-0.003-0.305-0.012-0.459-0.012C22.141,35.918,10,48.059,10,62.981  S22.141,90.043,37.062,90.043z M35.782,20.759l34.306-8.595c1.332-0.334,2.716-0.129,3.896,0.577  c1.179,0.707,2.012,1.83,2.346,3.164l11.516,45.96c0.688,2.751-0.989,5.551-3.741,6.241l-22.181,5.557  c1.089-2.523,1.803-5.244,2.075-8.092l16.722-4.189c0.535-0.134,0.861-0.677,0.727-1.213c-0.134-0.537-0.678-0.857-1.213-0.727  l-16.121,4.039c0.003-0.167,0.013-0.333,0.013-0.501c0-1.405-0.108-2.786-0.316-4.134l15.928-3.991  c0.535-0.134,0.861-0.677,0.727-1.213c-0.134-0.536-0.679-0.86-1.213-0.727l-15.828,3.966c-0.456-1.972-1.121-3.866-1.984-5.648  c0.957-0.059,1.912-0.209,2.851-0.45c8.06-2.077,12.924-10.341,10.843-18.421c-1.008-3.914-3.477-7.203-6.95-9.26  c-3.475-2.058-7.538-2.635-11.443-1.631c-7.165,1.847-11.842,8.518-11.27,15.79c-1.872-0.614-3.832-1.03-5.858-1.22L35.782,20.759z   M54.047,31.871l3.967-1.022l1.181,4.586l-4.92,1.267C53.938,34.976,53.903,33.351,54.047,31.871z M73.396,33.843  c0.274,1.534,0.269,3.06,0.015,4.527l-4.468,1.151c0.107-1.404,0.043-2.9-0.26-4.464L73.396,33.843z M66.879,40.052l-4.154,1.07  l-1.094-4.249l5.113-1.317C67.034,37.135,67.053,38.651,66.879,40.052z M63.224,43.06l3.226-0.831  c-0.563,2.135-1.447,3.877-2.145,5.03L63.224,43.06z M61.131,34.937L59.95,30.35l4.171-1.074c0.841,1.226,1.591,2.668,2.131,4.341  L61.131,34.937z M59.451,28.413l-1.176-4.565c0.844,0.478,2.702,1.667,4.507,3.707L59.451,28.413z M57.514,28.912l-3.126,0.805  c0.539-2.413,1.459-4.244,2.001-5.172L57.514,28.912z M59.694,37.373l1.094,4.249l-3.944,1.016c-0.83-1.144-1.561-2.47-2.07-3.998  L59.694,37.373z M58.265,44.337l3.022-0.779l1.027,3.989C61.175,46.871,59.676,45.816,58.265,44.337z M68.661,41.659l4.172-1.075  c-1.139,3.162-3.47,5.844-6.591,7.36C67.107,46.465,68.136,44.289,68.661,41.659z M68.19,33.118  c-0.521-1.656-1.216-3.113-2.006-4.373l4.3-1.108c1.06,1.248,1.881,2.687,2.416,4.268L68.19,33.118z M64.945,26.998  c-1.463-1.84-3.035-3.15-4.248-3.993c2.255,0.031,4.473,0.638,6.467,1.819c0.589,0.349,1.134,0.75,1.654,1.176L64.945,26.998z   M52.227,30.274l-3.896,1.003c1.082-2.743,3.069-5.072,5.687-6.559C53.364,26.039,52.619,27.95,52.227,30.274z M47.672,33.513  l4.314-1.111C51.904,33.887,52,35.498,52.345,37.2l-4.227,1.089c-0.186-0.084-0.37-0.172-0.559-0.251  C47.328,36.49,47.383,34.967,47.672,33.513z M52.85,39.136c0.326,1.008,0.729,1.939,1.193,2.795  c-1.028-0.831-2.117-1.587-3.261-2.262L52.85,39.136z M61.23,49.241c-0.285,0.016-0.571,0.021-0.856,0.018  c-0.194-0.329-0.396-0.653-0.604-0.973C60.287,48.654,60.783,48.976,61.23,49.241z M37.062,37.918  c13.819,0,25.062,11.243,25.062,25.062S50.882,88.043,37.062,88.043S12,76.8,12,62.981S23.243,37.918,37.062,37.918z"/><path d="M37.062,84.044c5.554,0,10.599-2.177,14.366-5.703c0.105-0.048,0.207-0.108,0.293-0.195c0.053-0.053,0.082-0.12,0.12-0.181  c3.875-3.822,6.284-9.125,6.284-14.985c0-11.614-9.449-21.062-21.063-21.062s-21.063,9.448-21.063,21.062  S25.448,84.044,37.062,84.044z M56.056,61.602h-2.717c-0.553,0-1,0.447-1,1s0.447,1,1,1h2.756c-0.155,4.779-2.071,9.11-5.126,12.377  l-1.781-1.781c-0.391-0.391-1.023-0.391-1.414,0s-0.391,1.023,0,1.414l1.756,1.756c-3.137,2.722-7.164,4.426-11.584,4.63v-2.6  c0-0.553-0.447-1-1-1s-1,0.447-1,1v2.588c-4.559-0.266-8.685-2.133-11.833-5.057l1.89-1.89c0.391-0.391,0.391-1.023,0-1.414  s-1.023-0.391-1.414,0l-1.87,1.87c-2.801-3.206-4.541-7.349-4.688-11.896h2.926c0.553,0,1-0.447,1-1s-0.447-1-1-1h-2.887  c0.305-4.226,1.986-8.069,4.606-11.089l2.147,2.148c0.195,0.195,0.451,0.293,0.707,0.293s0.512-0.098,0.707-0.293  c0.391-0.391,0.391-1.023,0-1.414l-2.171-2.172c3.154-2.949,7.299-4.833,11.881-5.1v2.967c0,0.553,0.447,1,1,1s1-0.447,1-1v-2.979  c4.443,0.205,8.488,1.927,11.632,4.674l-2.091,2.092c-0.391,0.391-0.391,1.023,0,1.414c0.195,0.195,0.451,0.293,0.707,0.293  s0.512-0.098,0.707-0.293l2.111-2.112C53.88,53.119,55.735,57.147,56.056,61.602z"/><path d="M37.898,50.391c-0.133-0.414-0.518-0.694-0.952-0.694s-0.819,0.28-0.952,0.694l-4.011,12.475  c-0.063,0.198-0.063,0.413,0,0.611l4.011,12.474c0.133,0.414,0.518,0.694,0.952,0.694s0.819-0.28,0.952-0.694l4.01-12.474  c0.063-0.198,0.063-0.413,0-0.611L37.898,50.391z M36.946,72.377l-2.96-9.206l2.96-9.207l2.959,9.207L36.946,72.377z"/>
</svg>