<svg xmlns="http://www.w3.org/2000/svg" xmlns:xlink="http://www.w3.org/1999/xlink" version="1.1" x="0px" y="0px" viewBox="0 0 511.841 426.58625" enable-background="new 0 0 511.841 341.269" xml:space="preserve"><polygon points="-202.113,-1710.743 -187.411,-1665.495 -139.835,-1665.495 -178.325,-1637.531 -163.623,-1592.283   -202.113,-1620.248 -240.603,-1592.283 -225.901,-1637.531 -264.391,-1665.495 -216.814,-1665.495 "/><polygon points="27.907,-1710.743 42.61,-1665.495 90.189,-1665.495 51.697,-1637.531 66.4,-1592.283 27.907,-1620.248   -10.585,-1592.283 4.118,-1637.531 -34.375,-1665.495 13.204,-1665.495 "/><polygon points="257.93,-1710.743 272.632,-1665.495 320.211,-1665.495 281.719,-1637.531 296.422,-1592.283 257.93,-1620.248   219.438,-1592.283 234.141,-1637.531 195.649,-1665.495 243.227,-1665.495 "/><polygon points="487.952,-1710.743 502.655,-1665.495 550.234,-1665.495 511.741,-1637.531 526.445,-1592.283 487.952,-1620.248   449.46,-1592.283 464.163,-1637.531 425.671,-1665.495 473.249,-1665.495 "/><polygon points="717.975,-1710.743 732.677,-1665.495 780.256,-1665.495 741.764,-1637.531 756.467,-1592.283 717.975,-1620.248   679.483,-1592.283 694.186,-1637.531 655.694,-1665.495 703.272,-1665.495 "/><polygon points="947.997,-1710.743 962.699,-1665.495 1010.279,-1665.495 971.786,-1637.531 986.49,-1592.283 947.997,-1620.248   909.505,-1592.283 924.208,-1637.531 885.716,-1665.495 933.294,-1665.495 "/><polygon points="-87.105,-1590.737 -72.403,-1545.489 -24.824,-1545.489 -63.316,-1517.525 -48.613,-1472.277 -87.105,-1500.242   -125.596,-1472.277 -110.893,-1517.525 -149.384,-1545.489 -101.807,-1545.489 "/><polygon points="142.915,-1590.737 157.617,-1545.489 205.197,-1545.489 166.704,-1517.525 181.407,-1472.277 142.915,-1500.242   104.423,-1472.277 119.126,-1517.525 80.634,-1545.489 128.212,-1545.489 "/><polygon points="372.938,-1590.737 387.64,-1545.489 435.219,-1545.489 396.727,-1517.525 411.43,-1472.277 372.938,-1500.242   334.446,-1472.277 349.149,-1517.525 310.656,-1545.489 358.235,-1545.489 "/><polygon points="602.96,-1590.737 617.662,-1545.489 665.241,-1545.489 626.749,-1517.525 641.452,-1472.277 602.96,-1500.242   564.468,-1472.277 579.171,-1517.525 540.679,-1545.489 588.257,-1545.489 "/><polygon points="832.983,-1590.737 847.685,-1545.489 895.264,-1545.489 856.772,-1517.525 871.475,-1472.277 832.983,-1500.242   794.49,-1472.277 809.194,-1517.525 770.701,-1545.489 818.28,-1545.489 "/><polygon points="-202.113,-1470.731 -187.411,-1425.483 -139.835,-1425.483 -178.325,-1397.519 -163.623,-1352.271   -202.113,-1380.236 -240.603,-1352.271 -225.901,-1397.519 -264.391,-1425.483 -216.814,-1425.483 "/><polygon points="27.907,-1470.731 42.61,-1425.483 90.189,-1425.483 51.697,-1397.519 66.4,-1352.271 27.907,-1380.236   -10.585,-1352.271 4.118,-1397.519 -34.375,-1425.483 13.204,-1425.483 "/><polygon points="257.93,-1470.731 272.632,-1425.483 320.211,-1425.483 281.719,-1397.519 296.422,-1352.271 257.93,-1380.236   219.438,-1352.271 234.141,-1397.519 195.649,-1425.483 243.227,-1425.483 "/><polygon points="487.952,-1470.731 502.655,-1425.483 550.234,-1425.483 511.741,-1397.519 526.445,-1352.271 487.952,-1380.236   449.46,-1352.271 464.163,-1397.519 425.671,-1425.483 473.249,-1425.483 "/><polygon points="717.975,-1470.731 732.677,-1425.483 780.256,-1425.483 741.764,-1397.519 756.467,-1352.271 717.975,-1380.236   679.483,-1352.271 694.186,-1397.519 655.694,-1425.483 703.272,-1425.483 "/><polygon points="947.997,-1470.731 962.699,-1425.483 1010.279,-1425.483 971.786,-1397.519 986.49,-1352.271 947.997,-1380.236   909.505,-1352.271 924.208,-1397.519 885.716,-1425.483 933.294,-1425.483 "/><polygon points="-87.105,-1350.725 -72.403,-1305.475 -24.824,-1305.475 -63.316,-1277.51 -48.613,-1232.259 -87.105,-1260.226   -125.596,-1232.259 -110.893,-1277.51 -149.384,-1305.475 -101.807,-1305.475 "/><polygon points="142.915,-1350.725 157.617,-1305.475 205.197,-1305.475 166.704,-1277.51 181.407,-1232.259 142.915,-1260.226   104.423,-1232.259 119.126,-1277.51 80.634,-1305.475 128.212,-1305.475 "/><polygon points="372.938,-1350.725 387.64,-1305.475 435.219,-1305.475 396.727,-1277.51 411.43,-1232.259 372.938,-1260.226   334.446,-1232.259 349.149,-1277.51 310.656,-1305.475 358.235,-1305.475 "/><polygon points="602.96,-1350.725 617.662,-1305.475 665.241,-1305.475 626.749,-1277.51 641.452,-1232.259 602.96,-1260.226   564.468,-1232.259 579.171,-1277.51 540.679,-1305.475 588.257,-1305.475 "/><polygon points="832.983,-1350.725 847.685,-1305.475 895.264,-1305.475 856.772,-1277.51 871.475,-1232.259 832.983,-1260.226   794.49,-1232.259 809.194,-1277.51 770.701,-1305.475 818.28,-1305.475 "/><polygon points="-202.113,-1231.712 -187.411,-1186.462 -139.835,-1186.462 -178.325,-1158.498 -163.623,-1113.247   -202.113,-1141.213 -240.603,-1113.247 -225.901,-1158.498 -264.391,-1186.462 -216.814,-1186.462 "/><polygon points="27.907,-1231.712 42.61,-1186.462 90.189,-1186.462 51.697,-1158.498 66.4,-1113.247 27.907,-1141.213   -10.585,-1113.247 4.118,-1158.498 -34.375,-1186.462 13.204,-1186.462 "/><polygon points="257.93,-1231.712 272.632,-1186.462 320.211,-1186.462 281.719,-1158.498 296.422,-1113.247 257.93,-1141.213   219.438,-1113.247 234.141,-1158.498 195.649,-1186.462 243.227,-1186.462 "/><polygon points="487.952,-1231.712 502.655,-1186.462 550.234,-1186.462 511.741,-1158.498 526.445,-1113.247 487.952,-1141.213   449.46,-1113.247 464.163,-1158.498 425.671,-1186.462 473.249,-1186.462 "/><polygon points="717.975,-1231.712 732.677,-1186.462 780.256,-1186.462 741.764,-1158.498 756.467,-1113.247 717.975,-1141.213   679.483,-1113.247 694.186,-1158.498 655.694,-1186.462 703.272,-1186.462 "/><polygon points="947.997,-1231.712 962.699,-1186.462 1010.279,-1186.462 971.786,-1158.498 986.49,-1113.247 947.997,-1141.213   909.505,-1113.247 924.208,-1158.498 885.716,-1186.462 933.294,-1186.462 "/><polygon points="-87.105,-1111.701 -72.403,-1066.451 -24.824,-1066.451 -63.316,-1038.486 -48.613,-993.235 -87.105,-1021.202   -125.596,-993.235 -110.893,-1038.486 -149.384,-1066.451 -101.807,-1066.451 "/><polygon points="142.915,-1111.701 157.617,-1066.451 205.197,-1066.451 166.704,-1038.486 181.407,-993.235 142.915,-1021.202   104.423,-993.235 119.126,-1038.486 80.634,-1066.451 128.212,-1066.451 "/><polygon points="372.938,-1111.701 387.64,-1066.451 435.219,-1066.451 396.727,-1038.486 411.43,-993.235 372.938,-1021.202   334.446,-993.235 349.149,-1038.486 310.656,-1066.451 358.235,-1066.451 "/><polygon points="602.96,-1111.701 617.662,-1066.451 665.241,-1066.451 626.749,-1038.486 641.452,-993.235 602.96,-1021.202   564.468,-993.235 579.171,-1038.486 540.679,-1066.451 588.257,-1066.451 "/><polygon points="832.983,-1111.701 847.685,-1066.451 895.264,-1066.451 856.772,-1038.486 871.475,-993.235 832.983,-1021.202   794.49,-993.235 809.194,-1038.486 770.701,-1066.451 818.28,-1066.451 "/><polygon points="-202.113,-991.689 -187.411,-946.439 -139.835,-946.439 -178.325,-918.474 -163.623,-873.223 -202.113,-901.19   -240.603,-873.223 -225.901,-918.474 -264.391,-946.439 -216.814,-946.439 "/><polygon points="27.907,-991.689 42.61,-946.439 90.189,-946.439 51.697,-918.474 66.4,-873.223 27.907,-901.19 -10.585,-873.223   4.118,-918.474 -34.375,-946.439 13.204,-946.439 "/><polygon points="257.93,-991.689 272.632,-946.439 320.211,-946.439 281.719,-918.474 296.422,-873.223 257.93,-901.19   219.438,-873.223 234.141,-918.474 195.649,-946.439 243.227,-946.439 "/><polygon points="487.952,-991.689 502.655,-946.439 550.234,-946.439 511.741,-918.474 526.445,-873.223 487.952,-901.19   449.46,-873.223 464.163,-918.474 425.671,-946.439 473.249,-946.439 "/><polygon points="717.975,-991.689 732.677,-946.439 780.256,-946.439 741.764,-918.474 756.467,-873.223 717.975,-901.19   679.483,-873.223 694.186,-918.474 655.694,-946.439 703.272,-946.439 "/><polygon points="947.997,-991.689 962.699,-946.439 1010.279,-946.439 971.786,-918.474 986.49,-873.223 947.997,-901.19   909.505,-873.223 924.208,-918.474 885.716,-946.439 933.294,-946.439 "/><polygon points="-87.105,-851.675 -72.403,-806.425 -24.824,-806.425 -63.316,-778.46 -48.613,-733.209 -87.105,-761.176   -125.596,-733.209 -110.893,-778.46 -149.384,-806.425 -101.807,-806.425 "/><polygon points="142.915,-851.675 157.617,-806.425 205.197,-806.425 166.704,-778.46 181.407,-733.209 142.915,-761.176   104.423,-733.209 119.126,-778.46 80.634,-806.425 128.212,-806.425 "/><polygon points="372.938,-851.675 387.64,-806.425 435.219,-806.425 396.727,-778.46 411.43,-733.209 372.938,-761.176   334.446,-733.209 349.149,-778.46 310.656,-806.425 358.235,-806.425 "/><polygon points="602.96,-851.675 617.662,-806.425 665.241,-806.425 626.749,-778.46 641.452,-733.209 602.96,-761.176   564.468,-733.209 579.171,-778.46 540.679,-806.425 588.257,-806.425 "/><polygon points="832.983,-851.675 847.685,-806.425 895.264,-806.425 856.772,-778.46 871.475,-733.209 832.983,-761.176   794.49,-733.209 809.194,-778.46 770.701,-806.425 818.28,-806.425 "/><polygon points="-202.113,-730.664 -187.411,-685.414 -139.835,-685.414 -178.325,-657.449 -163.623,-612.198 -202.113,-640.165   -240.603,-612.198 -225.901,-657.449 -264.391,-685.414 -216.814,-685.414 "/><polygon points="27.907,-730.664 42.61,-685.414 90.189,-685.414 51.697,-657.449 66.4,-612.198 27.907,-640.165 -10.585,-612.198   4.118,-657.449 -34.375,-685.414 13.204,-685.414 "/><polygon points="257.93,-730.664 272.632,-685.414 320.211,-685.414 281.719,-657.449 296.422,-612.198 257.93,-640.165   219.438,-612.198 234.141,-657.449 195.649,-685.414 243.227,-685.414 "/><polygon points="487.952,-730.664 502.655,-685.414 550.234,-685.414 511.741,-657.449 526.445,-612.198 487.952,-640.165   449.46,-612.198 464.163,-657.449 425.671,-685.414 473.249,-685.414 "/><polygon points="717.975,-730.664 732.677,-685.414 780.256,-685.414 741.764,-657.449 756.467,-612.198 717.975,-640.165   679.483,-612.198 694.186,-657.449 655.694,-685.414 703.272,-685.414 "/><polygon points="947.997,-730.664 962.699,-685.414 1010.279,-685.414 971.786,-657.449 986.49,-612.198 947.997,-640.165   909.505,-612.198 924.208,-657.449 885.716,-685.414 933.294,-685.414 "/><path d="M501.327,156.617H208.361v-24.548h292.967v-24.88H208.361V82.305h292.967v-24.88H208.361V32.537h292.967V7.657H208.361  V7.576H6.189v173.921h495.138V156.617z M173.83,32.434l2.127,6.547h6.884l-5.569,4.045l2.128,6.547l-5.569-4.046l-5.569,4.046  l2.128-6.547l-5.568-4.045h6.883L173.83,32.434z M179.4,84.296l-5.569-4.046l-5.569,4.046l2.128-6.547l-5.568-4.046h6.883  l2.127-6.546l2.127,6.546h6.884l-5.569,4.046L179.4,84.296z M179.4,118.876l-5.569-4.046l-5.569,4.046l2.128-6.546l-5.568-4.046  h6.883l2.127-6.547l2.127,6.547h6.884l-5.569,4.046L179.4,118.876z M162.761,136.238l-5.568-4.046l-5.569,4.046l2.127-6.546  l-5.568-4.046h6.883l2.128-6.547l2.127,6.547h6.883l-5.568,4.046L162.761,136.238z M146.121,118.876l-5.569-4.046l-5.569,4.046  l2.127-6.546l-5.569-4.046h6.883l2.127-6.547l2.127,6.547h6.883l-5.569,4.046L146.121,118.876z M129.483,136.238l-5.569-4.046  l-5.568,4.046l2.127-6.546l-5.569-4.046h6.883l2.127-6.547l2.127,6.547h6.883l-5.569,4.046L129.483,136.238z M112.843,118.876  l-5.569-4.046l-5.569,4.046l2.127-6.546l-5.569-4.046h6.883l2.127-6.547l2.127,6.547h6.884l-5.569,4.046L112.843,118.876z   M96.204,136.238l-5.569-4.046l-5.568,4.046l2.127-6.546l-5.569-4.046h6.883l2.127-6.547l2.127,6.547h6.883l-5.569,4.046  L96.204,136.238z M79.565,118.876l-5.569-4.046l-5.569,4.046l2.127-6.546l-5.569-4.046h6.883l2.127-6.547l2.127,6.547h6.883  l-5.568,4.046L79.565,118.876z M62.927,136.238l-5.568-4.046l-5.569,4.046l2.127-6.546l-5.569-4.046h6.883l2.127-6.547l2.127,6.547  h6.883l-5.568,4.046L62.927,136.238z M46.287,118.876l-5.569-4.046l-5.568,4.046l2.127-6.546l-5.568-4.046h6.883l2.127-6.547  l2.127,6.547h6.884l-5.569,4.046L46.287,118.876z M31.709,73.703h6.883l2.127-6.546l2.127,6.546h6.884l-5.569,4.046l2.127,6.547  l-5.569-4.046l-5.568,4.046l2.127-6.547L31.709,73.703z M162.761,66.934l-5.568-4.046l-5.569,4.046l2.127-6.547l-5.568-4.045h6.883  l2.128-6.546l2.127,6.546h6.883l-5.568,4.045L162.761,66.934z M162.761,101.514l-5.568-4.046l-5.569,4.046l2.127-6.546l-5.568-4.047  h6.883l2.128-6.546l2.127,6.546h6.883l-5.568,4.047L162.761,101.514z M149.563,73.703l-5.569,4.046l2.128,6.547l-5.569-4.046  l-5.569,4.046l2.127-6.547l-5.569-4.046h6.883l2.127-6.546l2.127,6.546H149.563z M129.483,101.514l-5.569-4.046l-5.568,4.046  l2.127-6.546l-5.569-4.047h6.883l2.127-6.546l2.127,6.546h6.883l-5.569,4.047L129.483,101.514z M127.355,60.387l2.127,6.547  l-5.569-4.046l-5.568,4.046l2.127-6.547l-5.569-4.045h6.883l2.127-6.546l2.127,6.546h6.883L127.355,60.387z M116.285,73.703  l-5.569,4.046l2.127,6.547l-5.569-4.046l-5.569,4.046l2.127-6.547l-5.569-4.046h6.883l2.127-6.546l2.127,6.546H116.285z   M96.204,101.514l-5.569-4.046l-5.568,4.046l2.127-6.546l-5.569-4.047h6.883l2.127-6.546l2.127,6.546h6.883l-5.569,4.047  L96.204,101.514z M94.077,60.387l2.127,6.547l-5.569-4.046l-5.568,4.046l2.127-6.547l-5.569-4.045h6.883l2.127-6.546l2.127,6.546  h6.883L94.077,60.387z M83.007,73.703l-5.568,4.046l2.127,6.547l-5.569-4.046l-5.569,4.046l2.127-6.547l-5.569-4.046h6.883  l2.127-6.546l2.127,6.546H83.007z M62.927,101.514l-5.568-4.046l-5.569,4.046l2.127-6.546l-5.569-4.047h6.883l2.127-6.546  l2.127,6.546h6.883L60.8,94.968L62.927,101.514z M60.8,60.387l2.127,6.547l-5.568-4.046l-5.569,4.046l2.127-6.547l-5.569-4.045  h6.883l2.127-6.546l2.127,6.546h6.883L60.8,60.387z M155.065,21.618l2.128-6.546l2.127,6.546h6.883l-5.568,4.046l2.127,6.546  l-5.568-4.045l-5.569,4.045l2.127-6.546l-5.568-4.046H155.065z M140.552,32.434l2.127,6.547h6.883l-5.569,4.045l2.128,6.547  l-5.569-4.046l-5.569,4.046l2.127-6.547l-5.569-4.045h6.883L140.552,32.434z M121.787,21.618l2.127-6.546l2.127,6.546h6.883  l-5.569,4.046l2.127,6.546l-5.569-4.045l-5.568,4.045l2.127-6.546l-5.569-4.046H121.787z M107.274,32.434l2.127,6.547h6.884  l-5.569,4.045l2.127,6.547l-5.569-4.046l-5.569,4.046l2.127-6.547l-5.569-4.045h6.883L107.274,32.434z M88.509,21.618l2.127-6.546  l2.127,6.546h6.883l-5.569,4.046l2.127,6.546l-5.569-4.045l-5.568,4.045l2.127-6.546l-5.569-4.046H88.509z M73.996,32.434  l2.127,6.547h6.883l-5.568,4.045l2.127,6.547l-5.569-4.046l-5.569,4.046l2.127-6.547l-5.569-4.045h6.883L73.996,32.434z   M55.231,21.618l2.127-6.546l2.127,6.546h6.883L60.8,25.664l2.127,6.546l-5.568-4.045l-5.569,4.045l2.127-6.546l-5.569-4.046H55.231  z M40.719,32.434l2.127,6.547h6.884l-5.569,4.045l2.127,6.547l-5.569-4.046l-5.568,4.046l2.127-6.547l-5.568-4.045h6.883  L40.719,32.434z M21.953,21.618l2.127-6.546l2.127,6.546h6.883l-5.568,4.046l2.127,6.546l-5.568-4.045l-5.568,4.045l2.127-6.546  l-5.569-4.046H21.953z M21.953,56.342l2.127-6.546l2.127,6.546h6.883l-5.568,4.045l2.127,6.547l-5.568-4.046l-5.568,4.046  l2.127-6.547l-5.569-4.045H21.953z M21.953,90.921l2.127-6.546l2.127,6.546h6.883l-5.568,4.047l2.127,6.546l-5.568-4.046  l-5.568,4.046l2.127-6.546l-5.569-4.047H21.953z M21.953,125.646l2.127-6.547l2.127,6.547h6.883l-5.568,4.046l2.127,6.546  l-5.568-4.046l-5.568,4.046l2.127-6.546l-5.569-4.046H21.953z M29.649,174.002l-5.568-4.046l-5.568,4.046l2.127-6.547l-5.569-4.046  h6.883l2.127-6.547l2.127,6.547h6.883l-5.568,4.046L29.649,174.002z M40.719,152.448l-5.568,4.047l2.127-6.547l-5.568-4.046h6.883  l2.127-6.547l2.127,6.547h6.884l-5.569,4.046l2.127,6.547L40.719,152.448z M62.927,174.002l-5.568-4.046l-5.569,4.046l2.127-6.547  l-5.569-4.046h6.883l2.127-6.547l2.127,6.547h6.883l-5.568,4.046L62.927,174.002z M73.996,152.448l-5.569,4.047l2.127-6.547  l-5.569-4.046h6.883l2.127-6.547l2.127,6.547h6.883l-5.568,4.046l2.127,6.547L73.996,152.448z M96.204,174.002l-5.569-4.046  l-5.568,4.046l2.127-6.547l-5.569-4.046h6.883l2.127-6.547l2.127,6.547h6.883l-5.569,4.046L96.204,174.002z M107.274,152.448  l-5.569,4.047l2.127-6.547l-5.569-4.046h6.883l2.127-6.547l2.127,6.547h6.884l-5.569,4.046l2.127,6.547L107.274,152.448z   M129.483,174.002l-5.569-4.046l-5.568,4.046l2.127-6.547l-5.569-4.046h6.883l2.127-6.547l2.127,6.547h6.883l-5.569,4.046  L129.483,174.002z M140.552,152.448l-5.569,4.047l2.127-6.547l-5.569-4.046h6.883l2.127-6.547l2.127,6.547h6.883l-5.569,4.046  l2.128,6.547L140.552,152.448z M162.761,174.002l-5.568-4.046l-5.569,4.046l2.127-6.547l-5.568-4.046h6.883l2.128-6.547l2.127,6.547  h6.883l-5.568,4.046L162.761,174.002z M173.83,152.448l-5.569,4.047l2.128-6.547l-5.568-4.046h6.883l2.127-6.547l2.127,6.547h6.884  l-5.569,4.046l2.128,6.547L173.83,152.448z M196.039,174.002l-5.569-4.046l-5.568,4.046l2.127-6.547l-5.568-4.046h6.883l2.127-6.547  l2.127,6.547h6.883l-5.567,4.046L196.039,174.002z M193.912,129.692l2.127,6.546l-5.569-4.046l-5.568,4.046l2.127-6.546  l-5.568-4.046h6.883l2.127-6.547l2.127,6.547h6.883L193.912,129.692z M193.912,94.968l2.127,6.546l-5.569-4.046l-5.568,4.046  l2.127-6.546l-5.568-4.047h6.883l2.127-6.546l2.127,6.546h6.883L193.912,94.968z M193.912,60.387l2.127,6.547l-5.569-4.046  l-5.568,4.046l2.127-6.547l-5.568-4.045h6.883l2.127-6.546l2.127,6.546h6.883L193.912,60.387z M193.912,25.664l2.127,6.546  l-5.569-4.045l-5.568,4.045l2.127-6.546l-5.568-4.046h6.883l2.127-6.546l2.127,6.546h6.883L193.912,25.664z"/><rect x="6.199" y="206.664" width="495.163" height="24.88"/><rect x="6.199" y="256.431" width="495.163" height="24.88"/><rect x="6.199" y="306.195" width="495.163" height="24.88"/></svg>