<svg xmlns="http://www.w3.org/2000/svg" xmlns:xlink="http://www.w3.org/1999/xlink" version="1.1" x="0px" y="0px" viewBox="0 0 100 125" enable-background="new 0 0 100 100" xml:space="preserve"><g><path d="M94.72,20.308L94.72,20.308H50.343H5.28v59.383l0,0h45.316H94.72V49.815l0,0V20.308z M50.343,20.561v29.001H5.533V20.561   H50.343z M94.467,79.439H50.596V49.815h43.871V79.439z"/><polygon points="23.506,41.637 27.704,38.575 31.901,41.637 30.286,36.699 34.495,33.653 29.299,33.663 27.704,28.718    26.107,33.663 20.912,33.653 25.121,36.699  "/><polygon points="70.135,66.07 68.52,71.008 72.717,67.946 76.914,71.008 75.299,66.07 79.508,63.024 74.313,63.034 72.717,58.09    71.121,63.034 65.926,63.024  "/></g><text x="0" y="115" fill="#000000" font-size="5px" font-weight="bold" font-family="'Helvetica Neue', Helvetica, Arial-Unicode, Arial, Sans-serif">Created by Nikita Kozin</text><text x="0" y="120" fill="#000000" font-size="5px" font-weight="bold" font-family="'Helvetica Neue', Helvetica, Arial-Unicode, Arial, Sans-serif">from the Noun Project</text></svg>