<svg xmlns="http://www.w3.org/2000/svg"
xmlns:xlink="http://www.w3.org/1999/xlink"
version="1.1" 
x="0px" 
y="0px"
viewBox="0 0 100 125" 
width="200px"
height="200px"
xml:space="preserve">
<style type="text/css">
stroke-width:1;
	.st0{fill:none;stroke:#000000;stroke-width:1;stroke-linecap:round;stroke-miterlimit:10;}
	.st1{fill:none;stroke:#000000;stroke-width:1;stroke-linecap:round;stroke-linejoin:round;stroke-miterlimit:10;}
	.st2{fill:none;stroke:#000000;stroke-width:1;stroke-miterlimit:10;}
</style>
<path d="M75.5,71.4c-0.7-0.7-1.8-0.7-2.5,0l-2.4,2.4c-0.7,0.7-0.7,1.8,0,2.5l2.4,2.4c0.3,0.3,0.8,0.5,1.2,0.5c0.5,0,0.9-0.2,1.2-0.5  l2.4-2.4l0,0c0.7-0.7,0.7-1.8,0-2.5L75.5,71.4z M74.3,77.1L72.2,75l2.1-2.1l2.1,2.1L74.3,77.1z"/><path d="M66.2,68.8c-0.7-0.7-1.8-0.7-2.5,0l-2.4,2.4c-0.7,0.7-0.7,1.8,0,2.5l2.4,2.4c0.3,0.3,0.8,0.5,1.2,0.5c0.5,0,0.9-0.2,1.2-0.5  l2.4-2.4c0.7-0.7,0.7-1.8,0-2.5L66.2,68.8z M65,74.6l-2.1-2.1l2.1-2.1l2.1,2.1L65,74.6z"/><path d="M62.6,66.1c0.4,0,0.9-0.2,1.2-0.5l2.4-2.4c0.7-0.7,0.7-1.8,0-2.5l-2.4-2.4c-0.7-0.7-1.8-0.7-2.5,0l-2.4,2.4  c-0.7,0.7-0.7,1.8,0,2.5l2.4,2.4C61.7,65.9,62.1,66.1,62.6,66.1z M62.6,59.8l2.1,2.1L62.6,64l-2.1-2.1L62.6,59.8z"/><path d="M84.4,65.5c0.1-0.5-0.1-0.9-0.3-1.3c-0.3-0.4-0.7-0.6-1.2-0.7L79.5,63c-0.5-0.1-0.9,0.1-1.3,0.3c-0.4,0.3-0.6,0.7-0.7,1.2  L77,67.9c-0.1,1,0.5,1.8,1.5,2l3.4,0.5c0.1,0,0.2,0,0.3,0c0.4,0,0.7-0.1,1-0.4c0.4-0.3,0.6-0.7,0.7-1.2L84.4,65.5z M81.9,68.3  L79,67.9l0.4-2.9l2.9,0.4L81.9,68.3z"/><path d="M68.7,67.5l3.2,1.3c0.2,0.1,0.4,0.1,0.7,0.1c0.2,0,0.5,0,0.7-0.1c0.4-0.2,0.8-0.5,1-0.9l1.3-3.2c0.4-0.9-0.1-1.9-0.9-2.3  l-3.2-1.3c-0.9-0.4-1.9,0.1-2.3,0.9l-1.3,3.2C67.4,66.1,67.8,67.1,68.7,67.5z M70.8,63l2.7,1.1l-1.1,2.7l-2.7-1.1L70.8,63z"/><path d="M88.7,81.5h-2.3l2.9-35.2c0-0.3-0.1-0.6-0.3-0.9C88.5,45,87.9,45,87.5,45h-32c-0.4,0-1,0.1-1.4,0.5  c-0.2,0.2-0.3,0.5-0.3,0.9l2.9,35.2h-6.5c1.1-1.1,1.7-2.6,1.7-4.2v-9.9V46.7V36.4c0-3.6-2.9-6.5-6.5-6.5h-6.2  c-1.3,0-2.4-1.1-2.4-2.4v-1.6h1c0.6,0,1-0.4,1-1v-8c0-0.6-0.4-1-1-1h-1v-2.4c0-0.6-0.4-1-1-1h-8.8c-0.6,0-1,0.4-1,1v2.4h-1  c-0.6,0-1,0.4-1,1v8c0,0.6,0.4,1,1,1h1v1.6c0,0.6-0.3,1.3-0.7,1.7c-0.5,0.5-1.1,0.7-1.7,0.7c0,0,0,0,0,0l-6.1,0c0,0,0,0,0,0  c-1.7,0-3.4,0.7-4.6,1.9c-1.2,1.2-1.9,2.9-1.9,4.6v10.3v20.8v9.9c0,1.6,0.7,3.1,1.7,4.2H9.2c-0.6,0-1,0.4-1,1v6.1c0,0.6,0.4,1,1,1  h79.5c0.6,0,1-0.4,1-1v-6.1C89.7,82,89.3,81.5,88.7,81.5z M12.8,68.5H22c2.6,2.2,5.9,3.4,9.3,3.4s6.7-1.2,9.3-3.4h9.2v8.9  c0,2.2-1.8,4-4,4h-29c-2.2,0-4-1.8-4-4V68.5z M12.8,47.7h10.1c0.2,0,0.4-0.1,0.6-0.2c2.2-1.8,4.9-2.7,7.8-2.7s5.6,0.9,7.8,2.7  c0.2,0.1,0.4,0.2,0.6,0.2h10.1v18.8h-9.6c-0.2,0-0.5,0.1-0.7,0.2c-2.3,2-5.2,3.1-8.3,3.1s-6-1.1-8.3-3.1c-0.2-0.2-0.4-0.2-0.7-0.2  h-9.6V47.7z M26,23.9v-6h10.7v6H26z M27.9,14.5h6.8v1.4h-6.8V14.5z M14.1,33.1c0.9-0.8,2-1.3,3.2-1.3c0,0,0,0,0,0l6.1,0  c1.2,0,2.3-0.4,3.1-1.3c0.8-0.8,1.3-1.9,1.3-3.1v-1.6h6.8v1.6c0,2.4,2,4.4,4.4,4.4h6.2c2.5,0,4.5,2,4.5,4.5v9.3h-9.7  c-2.5-1.9-5.6-2.9-8.8-2.9s-6.2,1-8.8,2.9h-9.7v-9.3C12.8,35.1,13.3,34,14.1,33.1z M87.2,47l-0.9,10.8c-1.4,0.8-3,1.5-5.6,1.5  c-3.6,0-5.5-1.3-7.5-2.7c-2.2-1.5-4.5-3.1-8.6-3.1c-3.8,0-6,1.2-8,2.6L55.8,47H87.2z M56.7,58.4c0.1-0.1,0.2-0.1,0.2-0.2  c2-1.4,3.9-2.7,7.5-2.7c3.6,0,5.5,1.3,7.5,2.7c2.2,1.5,4.5,3.1,8.7,3.1c2.3,0,4-0.5,5.4-1.1l-1.7,21.4H58.6L56.7,58.4z M87.7,87.6  H10.2v-4.1h77.5V87.6z"/>
</svg>