<svg xmlns="http://www.w3.org/2000/svg" 
xmlns:xlink="http://www.w3.org/1999/xlink" 
version="1.1" 
x="0px" y="0px" 
width="200px"
height="200px"
viewBox="0 0 75 93.75"
enable-background="new 0 0 75 75"
xml:space="preserve">
<g><g><path d="M14.5,53.25c-0.5527344,0-1-0.4472656-1-1v-29.5c0-0.5527344,0.4472656-1,1-1s1,0.4472656,1,1v29.5    C15.5,52.8027344,15.0527344,53.25,14.5,53.25z"/></g><g><path d="M60.5,53.25c-0.5527344,0-1-0.4472656-1-1v-18.5c0-0.5527344,0.4472656-1,1-1s1,0.4472656,1,1v18.5    C61.5,52.8027344,61.0527344,53.25,60.5,53.25z"/></g><g><path d="M60.5,48.4169922h-46c-0.5527344,0-1-0.4472656-1-1V40.25c0-0.5527344,0.4472656-1,1-1h46c0.5527344,0,1,0.4472656,1,1    v7.1669922C61.5,47.9697266,61.0527344,48.4169922,60.5,48.4169922z M15.5,46.4169922h44V41.25h-44V46.4169922z"/></g><g><path d="M25.7617188,41.25H14.5c-0.5527344,0-1-0.4472656-1-1v-6.5c0-0.5527344,0.4472656-1,1-1h4.7617188    c4.1357422,0,7.5,3.3642578,7.5,7.5C26.7617188,40.8027344,26.3144531,41.25,25.7617188,41.25z M15.5,39.25h9.1708984    c-0.4716797-2.5566406-2.7177734-4.5-5.4091797-4.5H15.5V39.25z"/></g></g>
</svg>